# xmcd
# 
# Track frame offsets:
#     150
#     22345
#     38625
# 
# Disc length: 808
# 
# Revision: 1
# Processed by: cddbd v1.5.2PL0 Copyright (c) Steve Scherf et al.
# Submitted via: fre:ac v1.0.17
# 
DISCID=1f032603
DTITLE=Sweet Velvet - Lazy Drive
DYEAR=1999
DGENRE=JPop
TTITLE0=Lazy Drive
TTITLE1=After All
TTITLE2=Lazy Drive (original karaoke)
EXTD=
EXTT0=
EXTT1=
EXTT2=
PLAYORDER=
